<svg id="visual" viewBox="0 0 960 540" width="960" height="540" xmlns="http://www.w3.org/2000/svg" xmlns:xlink="http://www.w3.org/1999/xlink" version="1.1"><rect x="0" y="0" width="960" height="540" fill="#001220"></rect><defs><linearGradient id="grad1_0" x1="43.8%" y1="100%" x2="100%" y2="0%"><stop offset="14.444444444444446%" stop-color="#001220" stop-opacity="1"></stop><stop offset="85.55555555555554%" stop-color="#001220" stop-opacity="1"></stop></linearGradient></defs><defs><linearGradient id="grad2_0" x1="0%" y1="100%" x2="56.3%" y2="0%"><stop offset="14.444444444444446%" stop-color="#001220" stop-opacity="1"></stop><stop offset="85.55555555555554%" stop-color="#001220" stop-opacity="1"></stop></linearGradient></defs><g transform="translate(960, 540)"><path d="M-216 0C-215.5 -16.4 -215 -32.8 -207.7 -47.4C-200.3 -62 -186.2 -74.7 -171.2 -82.4C-156.2 -90.2 -140.4 -93 -136.8 -109.1C-133.2 -125.2 -141.8 -154.7 -134.7 -168.9C-127.6 -183 -104.8 -181.8 -86.8 -180.2C-68.7 -178.5 -55.3 -176.4 -41.6 -182.3C-27.9 -188.2 -14 -202.1 0 -216L0 0Z" fill="#FBAE3C"></path></g><g transform="translate(0, 0)"><path d="M216 0C213.6 16 211.3 32 204.7 46.7C198.2 61.5 187.4 74.9 174.8 84.2C162.2 93.4 147.6 98.5 139.9 111.6C132.2 124.7 131.3 145.8 119.7 150.1C108.1 154.4 85.7 141.8 73.3 152.3C61 162.7 58.6 196.1 48.1 210.6C37.5 225 18.8 220.5 0 216L0 0Z" fill="#FBAE3C"></path></g></svg>