<svg id="visual" viewBox="0 0 960 540" width="960" height="540" xmlns="http://www.w3.org/2000/svg" xmlns:xlink="http://www.w3.org/1999/xlink" version="1.1"><rect x="0" y="0" width="960" height="540" fill="#001220"></rect><defs><linearGradient id="grad1_0" x1="43.8%" y1="100%" x2="100%" y2="0%"><stop offset="14.444444444444446%" stop-color="#001220" stop-opacity="1"></stop><stop offset="85.55555555555554%" stop-color="#001220" stop-opacity="1"></stop></linearGradient></defs><defs><linearGradient id="grad2_0" x1="0%" y1="100%" x2="56.3%" y2="0%"><stop offset="14.444444444444446%" stop-color="#001220" stop-opacity="1"></stop><stop offset="85.55555555555554%" stop-color="#001220" stop-opacity="1"></stop></linearGradient></defs><g transform="translate(960, 540)"><path d="M-216 0C-215 -16.1 -214 -32.1 -210.6 -48.1C-207.2 -64 -201.4 -79.8 -188.3 -90.7C-175.2 -101.5 -154.7 -107.4 -137.6 -109.7C-120.5 -112.1 -106.8 -110.9 -101 -126.7C-95.3 -142.4 -97.5 -175 -87.6 -182C-77.8 -188.9 -55.8 -170.2 -39.2 -171.6C-22.5 -173 -11.3 -194.5 0 -216L0 0Z" fill="#52D857"></path></g><g transform="translate(0, 0)"><path d="M216 0C220.1 18.4 224.2 36.9 210.6 48.1C197 59.3 165.7 63.3 152.3 73.3C138.9 83.4 143.4 99.5 140.7 112.2C138 125 128.1 134.4 119.7 150.1C111.3 165.9 104.4 188 89.8 186.5C75.2 185 53 159.9 36.7 160.9C20.5 161.8 10.2 188.9 0 216L0 0Z" fill="#52D857"></path></g></svg>