<svg id="visual" viewBox="0 0 960 540" width="960" height="540" xmlns="http://www.w3.org/2000/svg" xmlns:xlink="http://www.w3.org/1999/xlink" version="1.1"><rect x="0" y="0" width="960" height="540" fill="#001220"></rect><defs><linearGradient id="grad1_0" x1="43.8%" y1="0%" x2="100%" y2="100%"><stop offset="14.444444444444446%" stop-color="#52d857" stop-opacity="1"></stop><stop offset="85.55555555555554%" stop-color="#52d857" stop-opacity="1"></stop></linearGradient></defs><defs><linearGradient id="grad1_1" x1="43.8%" y1="0%" x2="100%" y2="100%"><stop offset="14.444444444444446%" stop-color="#52d857" stop-opacity="1"></stop><stop offset="85.55555555555554%" stop-color="#00957f" stop-opacity="1"></stop></linearGradient></defs><defs><linearGradient id="grad1_2" x1="43.8%" y1="0%" x2="100%" y2="100%"><stop offset="14.444444444444446%" stop-color="#005067" stop-opacity="1"></stop><stop offset="85.55555555555554%" stop-color="#00957f" stop-opacity="1"></stop></linearGradient></defs><defs><linearGradient id="grad1_3" x1="43.8%" y1="0%" x2="100%" y2="100%"><stop offset="14.444444444444446%" stop-color="#005067" stop-opacity="1"></stop><stop offset="85.55555555555554%" stop-color="#001220" stop-opacity="1"></stop></linearGradient></defs><defs><linearGradient id="grad2_0" x1="0%" y1="0%" x2="56.3%" y2="100%"><stop offset="14.444444444444446%" stop-color="#52d857" stop-opacity="1"></stop><stop offset="85.55555555555554%" stop-color="#52d857" stop-opacity="1"></stop></linearGradient></defs><defs><linearGradient id="grad2_1" x1="0%" y1="0%" x2="56.3%" y2="100%"><stop offset="14.444444444444446%" stop-color="#00957f" stop-opacity="1"></stop><stop offset="85.55555555555554%" stop-color="#52d857" stop-opacity="1"></stop></linearGradient></defs><defs><linearGradient id="grad2_2" x1="0%" y1="0%" x2="56.3%" y2="100%"><stop offset="14.444444444444446%" stop-color="#00957f" stop-opacity="1"></stop><stop offset="85.55555555555554%" stop-color="#005067" stop-opacity="1"></stop></linearGradient></defs><defs><linearGradient id="grad2_3" x1="0%" y1="0%" x2="56.3%" y2="100%"><stop offset="14.444444444444446%" stop-color="#001220" stop-opacity="1"></stop><stop offset="85.55555555555554%" stop-color="#005067" stop-opacity="1"></stop></linearGradient></defs><g transform="translate(960, 0)"><path d="M0 297C-42.1 292.3 -84.2 287.5 -109.1 263.3C-133.9 239.1 -141.5 195.4 -170.4 170.4C-199.4 145.4 -249.7 139 -274.4 113.7C-299.1 88.4 -298 44.2 -297 0L0 0Z" fill="#002f47"></path><path d="M0 222.8C-31.6 219.2 -63.2 215.6 -81.8 197.5C-100.4 179.3 -106.1 146.6 -127.8 127.8C-149.5 109 -187.3 104.2 -205.8 85.2C-224.3 66.3 -223.5 33.1 -222.7 0L0 0Z" fill="#00727b"></path><path d="M0 148.5C-21.1 146.1 -42.1 143.8 -54.5 131.7C-67 119.6 -70.7 97.7 -85.2 85.2C-99.7 72.7 -124.9 69.5 -137.2 56.8C-149.5 44.2 -149 22.1 -148.5 0L0 0Z" fill="#00b872"></path><path d="M0 74.3C-10.5 73.1 -21.1 71.9 -27.3 65.8C-33.5 59.8 -35.4 48.9 -42.6 42.6C-49.8 36.3 -62.4 34.7 -68.6 28.4C-74.8 22.1 -74.5 11 -74.2 0L0 0Z" fill="#52d857"></path></g><g transform="translate(0, 540)"><path d="M0 -297C44.3 -298.2 88.7 -299.3 113.7 -274.4C138.6 -249.5 144.2 -198.5 169.7 -169.7C195.2 -140.9 240.6 -134.4 265.2 -109.8C289.7 -85.3 293.3 -42.6 297 0L0 0Z" fill="#002f47"></path><path d="M0 -222.7C33.3 -223.6 66.5 -224.5 85.2 -205.8C104 -187.1 108.2 -148.9 127.3 -127.3C146.4 -105.7 180.5 -100.8 198.9 -82.4C217.3 -63.9 220 -32 222.8 0L0 0Z" fill="#00727b"></path><path d="M0 -148.5C22.2 -149.1 44.3 -149.7 56.8 -137.2C69.3 -124.7 72.1 -99.2 84.9 -84.9C97.6 -70.5 120.3 -67.2 132.6 -54.9C144.8 -42.6 146.7 -21.3 148.5 0L0 0Z" fill="#00b872"></path><path d="M0 -74.2C11.1 -74.5 22.2 -74.8 28.4 -68.6C34.7 -62.4 36.1 -49.6 42.4 -42.4C48.8 -35.2 60.2 -33.6 66.3 -27.5C72.4 -21.3 73.3 -10.7 74.3 0L0 0Z" fill="#52d857"></path></g></svg>