<svg id="visual" viewBox="0 0 960 540" width="960" height="540" xmlns="http://www.w3.org/2000/svg" xmlns:xlink="http://www.w3.org/1999/xlink" version="1.1"><rect x="0" y="0" width="960" height="540" fill="#EBECF0"></rect><g transform="translate(476.3618032857766 258.8038672193077)"><path d="M88 -145C115.1 -119.4 139 -96.9 166.6 -67.1C194.3 -37.2 225.8 -0.1 227.6 37.3C229.3 74.7 201.2 112.3 169.5 144.5C137.9 176.7 102.8 203.5 62 219C21.3 234.4 -25 238.6 -66.1 226.1C-107.2 213.6 -143.2 184.4 -163.5 148.6C-183.7 112.7 -188.4 70.2 -199.5 25.7C-210.5 -18.9 -228.1 -65.5 -216.7 -102.5C-205.4 -139.6 -165.1 -166.9 -124.2 -186.2C-83.3 -205.6 -41.6 -216.8 -5.6 -208C30.4 -199.3 60.8 -170.6 88 -145" fill="#001220"></path></g></svg>